<?xml version="1.0" encoding="UTF-8"?>
<svg width="240px" height="240px" viewBox="0 0 240 240" version="1.1" xmlns="http://www.w3.org/2000/svg" xmlns:xlink="http://www.w3.org/1999/xlink">
    <title>Artboard</title>
    <g id="Artboard" stroke="none" stroke-width="1" fill="none" fill-rule="evenodd">
        <path d="M168.203324,136 C163.203324,155.666667 161.703324,172.333333 163.703324,186 C166.703324,206.5 188.909488,231.184834 186.703324,231.5 C184.49716,231.815166 163.703324,218.5 156.203324,186 C151.203324,164.333333 149.703324,147.666667 151.703324,136 L151.703324,136 Z M120,9 L188.5,136 L151.5,136 L120.5,70 L89,136 C91,147.666667 89.5,164.333333 84.5,186 C77,218.5 56.2061639,231.815166 54,231.5 C51.7938361,231.184834 74,206.5 77,186 C79,172.333333 77.5,155.666667 72.5,136 C66.9055948,161.817817 61.7389281,178.65115 57,186.5 C41,213 17.1902832,227.5 13.5,227.5 C9.43958333,227.5 32,211.5 48,179.5 C51.3827921,172.734416 53.3827921,158.234416 54,136 L120,9 Z M188.519626,136 C189.136833,158.234416 191.136833,172.734416 194.519626,179.5 C210.519626,211.5 233.080042,227.5 229.019626,227.5 C225.329342,227.5 201.519626,213 185.519626,186.5 C180.780697,178.65115 175.614031,161.817817 170.019626,136 L170.019626,136 Z" id="body" stroke="#00573F" fill="#0F624B"></path>
        <path d="M41,120.5 C22.4335188,121.922113 65.801845,105.966953 86,99.5 C106.198155,93.0330469 154.848187,77.5204816 163,78 C171.151813,78.4795184 129.62898,95.112459 120,101.5 C110.37102,107.887541 57.5,130 84,122.5 C110.5,115 131.86426,103.846627 149,99.5 C166.13574,95.1533733 245.687579,82.9327213 203.5,90.5" id="swish" stroke="#E10022" stroke-width="10"></path>
    </g>
</svg>